<?xml version="1.0" standalone="no"?>
<!DOCTYPE svg PUBLIC "-//W3C//DTD SVG 20010904//EN"
 "http://www.w3.org/TR/2001/REC-SVG-20010904/DTD/svg10.dtd">
<svg version="1.0" xmlns="http://www.w3.org/2000/svg"
 width="384.000000pt" height="512.000000pt" viewBox="0 0 384.000000 512.000000"
 preserveAspectRatio="xMidYMid meet">
<metadata>
Created by potrace 1.11, written by Peter Selinger 2001-2013
</metadata>
<g transform="translate(0.000000,512.000000) scale(0.100000,-0.100000)"
fill="#000000" stroke="none">
<path d="M1648 4699 c-179 -26 -335 -101 -465 -223 -46 -44 -99 -102 -118
-130 -46 -71 -89 -166 -132 -297 -26 -78 -28 -94 -27 -234 1 -98 9 -193 23
-275 11 -69 23 -145 26 -170 3 -25 8 -52 10 -60 20 -82 26 -364 10 -508 l-8
-73 50 -47 c38 -36 52 -59 62 -97 24 -93 73 -230 108 -305 19 -41 41 -94 48
-117 16 -53 5 -73 -88 -159 -142 -133 -277 -200 -580 -288 -86 -26 -221 -67
-300 -92 -78 -24 -170 -50 -204 -57 -38 -7 -63 -17 -63 -24 0 -7 2 -13 5 -13
14 0 217 56 325 90 69 21 193 59 275 84 322 97 412 144 572 300 34 33 65 58
68 55 2 -3 -2 -46 -9 -95 -15 -96 -14 -310 3 -449 13 -104 19 -171 31 -335 6
-74 12 -146 14 -160 2 -14 7 -61 11 -105 10 -129 15 -173 35 -305 11 -69 29
-190 40 -270 29 -207 53 -340 62 -340 11 0 10 26 -6 121 -8 46 -29 183 -46
304 -17 121 -33 227 -35 235 -2 8 -6 40 -9 70 -25 256 -37 383 -46 495 -6 72
-20 222 -31 335 -18 182 -19 219 -8 328 6 68 15 120 19 115 4 -4 13 -30 19
-58 16 -65 37 -110 75 -160 53 -70 169 -185 241 -239 79 -60 223 -146 251
-150 63 -10 442 261 556 396 41 49 103 140 111 162 20 55 32 -203 14 -304 -7
-44 -20 -137 -32 -230 -7 -64 -39 -215 -73 -351 -17 -65 -33 -148 -37 -185 -3
-38 -8 -78 -11 -89 -10 -49 -14 -85 -19 -189 -4 -61 -13 -181 -22 -266 -18
-186 -21 -252 -12 -305 5 -35 6 -32 8 25 1 36 8 126 15 200 8 74 17 189 21
255 9 192 16 273 25 306 5 17 12 57 15 88 8 66 41 210 51 220 6 5 0 -114 -11
-239 -3 -25 -7 -94 -10 -155 -3 -60 -8 -119 -10 -130 -2 -11 -7 -67 -10 -125
-8 -134 -15 -218 -21 -250 -9 -49 -14 -235 -6 -210 9 26 13 57 37 340 13 156
18 227 31 415 3 44 7 98 9 120 2 22 7 83 10 135 12 188 15 226 30 320 55 353
67 505 44 609 -12 60 -9 138 6 106 17 -39 79 -120 113 -150 93 -80 610 -270
994 -365 88 -22 162 -40 164 -40 2 0 4 6 4 13 0 8 -25 18 -67 26 -312 61 -945
280 -1075 372 -33 24 -138 177 -138 203 0 9 22 62 49 118 55 115 91 217 117
328 10 45 26 85 40 100 26 30 44 87 37 124 -6 29 14 212 33 306 9 43 24 369
23 501 -1 77 -9 168 -20 230 -23 131 -27 154 -39 264 -12 120 -22 148 -77 229
-62 91 -83 111 -178 169 -44 28 -96 62 -115 77 -72 56 -124 75 -320 115 -102
20 -151 25 -265 24 -77 -1 -166 -5 -197 -10z m442 -35 c173 -32 245 -57 315
-110 33 -25 87 -59 119 -77 146 -78 235 -214 250 -382 8 -89 16 -142 31 -225
35 -184 42 -392 20 -635 -15 -162 -18 -185 -29 -174 -2 2 -7 60 -10 129 -12
222 -44 381 -116 570 -31 81 -60 191 -49 185 5 -4 9 -1 9 4 0 6 -4 11 -10 11
-5 0 -9 4 -7 9 4 19 -38 70 -76 92 -37 20 -77 28 -322 64 -194 28 -672 12
-849 -29 -142 -33 -207 -87 -226 -185 -6 -31 -15 -79 -21 -107 -5 -28 -12 -63
-15 -77 -2 -15 -8 -37 -13 -50 -36 -94 -69 -298 -71 -439 0 -70 -17 -39 -29
55 -16 121 -20 143 -31 202 -19 99 -31 232 -32 345 0 107 2 123 37 225 94 277
213 423 440 539 162 83 434 107 685 60z m115 -559 c17 -3 53 -10 80 -15 28 -5
79 -12 115 -16 72 -8 136 -32 162 -60 9 -11 24 -50 33 -89 9 -38 26 -95 36
-125 91 -253 108 -328 135 -615 15 -159 14 -273 -3 -394 -4 -31 -2 -42 6 -37
6 4 11 1 11 -8 0 -8 -5 -18 -12 -22 -7 -4 -8 -3 -4 4 4 7 5 12 2 12 -11 0 -53
-106 -60 -150 -11 -71 -80 -268 -125 -357 -32 -64 -43 -100 -50 -162 -10 -87
-25 -122 -106 -229 -48 -64 -171 -179 -267 -250 -93 -69 -271 -175 -292 -174
-27 0 -152 70 -238 134 -97 72 -247 233 -282 303 -34 70 -64 167 -76 250 -5
33 -28 103 -51 155 -53 124 -73 176 -103 283 -31 107 -39 121 -75 143 -49 29
-64 93 -41 173 5 19 11 91 12 160 1 69 7 142 14 162 7 20 15 65 18 100 3 35 8
93 11 127 3 35 21 123 41 195 19 73 44 182 55 242 11 61 27 120 35 133 55 84
230 123 561 126 116 0 215 5 220 10 8 8 178 2 238 -9z"/>
<path d="M1961 4356 c9 -9 189 -14 194 -5 4 5 -35 9 -96 9 -56 0 -100 -2 -98
-4z"/>
<path d="M1205 4300 c-3 -5 1 -10 9 -10 9 0 16 5 16 10 0 6 -4 10 -9 10 -6 0
-13 -4 -16 -10z"/>
<path d="M2316 3553 c-22 -7 -57 -15 -78 -17 -37 -4 -98 -39 -98 -56 0 -5 12
-5 28 1 72 28 231 69 269 69 33 0 50 -7 78 -31 19 -17 38 -42 41 -55 8 -30 24
-31 24 -2 0 12 -19 39 -45 65 -45 42 -46 43 -113 42 -37 -1 -85 -8 -106 -16z"/>
<path d="M1309 3535 c-28 -15 -53 -48 -70 -92 l-10 -26 183 6 c154 6 187 10
207 25 14 10 26 23 28 29 3 9 -64 32 -187 64 -51 13 -121 10 -151 -6z m138
-19 c21 -8 71 -19 111 -26 39 -6 72 -15 72 -20 0 -14 -41 -19 -208 -26 -181
-8 -186 -6 -128 52 28 28 42 34 75 34 22 0 58 -6 78 -14z"/>
<path d="M2190 3460 c0 -10 25 -20 53 -21 21 0 20 -1 -3 -10 -39 -15 -130 -72
-130 -81 0 -5 37 11 83 34 l82 43 127 0 c69 0 130 3 134 8 4 4 -17 7 -47 7
-79 0 -218 11 -261 20 -21 4 -38 4 -38 0z"/>
<path d="M1428 3330 c-46 -14 -139 -71 -135 -84 2 -6 43 -14 103 -19 139 -11
147 -10 189 7 38 16 75 14 75 -5 0 -5 13 -9 29 -9 20 0 34 8 46 26 18 28 15
40 -10 31 -8 -4 -15 -16 -15 -27 0 -30 -15 -24 -51 21 -18 23 -47 48 -66 55
-35 15 -122 17 -165 4z m109 -16 c-3 -3 -12 -4 -19 -1 -8 3 -5 6 6 6 11 1 17
-2 13 -5z m51 -36 c-5 -15 -42 -22 -66 -13 -14 5 -14 7 -2 15 23 15 72 12 68
-2z"/>
<path d="M2194 3314 c-24 -12 -85 -92 -72 -95 2 0 35 -3 73 -5 61 -4 77 -1
123 22 45 23 61 26 110 21 l57 -6 -25 19 c-35 27 -143 60 -193 60 -23 0 -56
-7 -73 -16z m116 -35 c0 -15 -26 -39 -42 -39 -7 0 -24 7 -37 16 -18 13 -20 18
-10 25 20 12 89 11 89 -2z m50 1 c0 -5 -4 -10 -9 -10 -6 0 -13 5 -16 10 -3 6
1 10 9 10 9 0 16 -4 16 -10z"/>
<path d="M2105 2838 c-2 -7 -5 -26 -7 -43 l-3 -30 -65 3 c-55 3 -69 0 -93 -18
-29 -23 -43 -23 -123 1 -48 14 -83 6 -65 -15 11 -13 121 -29 201 -28 91 1 179
41 180 82 1 8 7 3 16 -12 8 -16 19 -28 23 -28 11 0 3 57 -10 83 -11 20 -48 23
-54 5z m-308 -104 c-3 -3 -12 -4 -19 -1 -8 3 -5 6 6 6 11 1 17 -2 13 -5z"/>
<path d="M1652 2473 c-57 -20 -76 -31 -87 -54 -18 -33 -4 -39 29 -14 16 12 52
13 207 8 128 -4 216 -2 279 6 85 12 93 12 112 -6 21 -17 21 -17 15 0 -4 10 -7
24 -7 31 0 8 -27 20 -62 29 -35 8 -72 19 -83 23 -17 7 -18 6 -7 -8 11 -13 8
-16 -15 -21 -16 -3 -68 0 -118 5 -49 6 -102 11 -117 11 -15 0 -25 4 -22 8 10
16 -51 8 -124 -18z m105 1 c-3 -3 -12 -4 -19 -1 -8 3 -5 6 6 6 11 1 17 -2 13
-5z"/>
<path d="M1805 1383 c-44 -10 -224 -212 -306 -343 -9 -14 -33 -51 -53 -82 -20
-32 -32 -58 -26 -58 11 0 16 7 141 189 l72 104 18 -24 c10 -13 35 -55 55 -94
48 -90 57 -180 26 -276 -75 -239 -94 -356 -96 -606 0 -116 3 -187 9 -190 6 -2
10 44 10 125 -1 133 9 315 20 367 3 17 10 53 15 80 5 28 25 104 46 170 21 70
37 141 37 170 0 69 -27 147 -81 229 l-46 69 77 74 c94 89 114 93 203 34 84
-56 90 -62 115 -110 20 -38 21 -46 8 -65 -33 -51 -59 -112 -59 -137 0 -45 29
-169 51 -218 39 -88 57 -155 94 -356 18 -102 25 -175 25 -292 0 -186 19 -183
22 4 2 120 -1 169 -20 268 -36 188 -61 288 -94 367 -34 81 -60 202 -52 245 7
36 45 113 56 113 5 0 11 -8 15 -17 3 -10 15 -30 25 -45 11 -16 17 -28 14 -28
-3 0 5 -11 17 -24 12 -13 37 -45 56 -72 19 -26 36 -43 38 -37 2 6 -23 48 -55
93 -32 45 -78 120 -101 166 -68 133 -191 226 -276 207z"/>
<path d="M2090 985 c-7 -9 -10 -18 -7 -21 3 -3 10 4 17 15 13 25 8 27 -10 6z"/>
<path d="M3095 710 c-11 -43 -10 -40 -29 -125 -9 -38 -23 -106 -31 -150 -17
-89 -36 -174 -71 -315 -13 -52 -24 -101 -24 -110 2 -51 67 192 105 390 9 47
28 134 41 194 14 60 23 118 22 130 -3 16 -6 13 -13 -14z"/>
<path d="M2206 375 c-9 -26 -7 -32 5 -12 6 10 9 21 6 23 -2 3 -7 -2 -11 -11z"/>
</g>
</svg>
